<mxfile host="app.diagrams.net" modified="2023-05-17T08:39:03.444Z" agent="Mozilla/5.0 (Windows NT 10.0; Win64; x64) AppleWebKit/537.36 (KHTML, like Gecko) Chrome/113.0.0.0 Safari/537.36" etag="epG5p1b_YsYIaHvAm2rC" version="21.3.2" type="github">
  <diagram name="Page-1" id="GN3WDu_81weQix8Wa0rY">
    <mxGraphModel dx="1750" dy="968" grid="1" gridSize="10" guides="1" tooltips="1" connect="1" arrows="1" fold="1" page="1" pageScale="1" pageWidth="1169" pageHeight="1654" math="0" shadow="0">
      <root>
        <mxCell id="0" />
        <mxCell id="1" parent="0" />
        <mxCell id="_lDWNF5c7xaYbBbKeXIW-13" value="" style="group;movable=0;resizable=0;rotatable=0;deletable=0;editable=0;locked=1;connectable=0;" vertex="1" connectable="0" parent="1">
          <mxGeometry x="180" y="78" width="800" height="480" as="geometry" />
        </mxCell>
        <mxCell id="VeHIC26g8emdlC1wqg1T-6" value="" style="whiteSpace=wrap;html=1;" parent="_lDWNF5c7xaYbBbKeXIW-13" vertex="1">
          <mxGeometry x="400" y="52" width="400" height="400" as="geometry" />
        </mxCell>
        <mxCell id="VeHIC26g8emdlC1wqg1T-7" value="&lt;font face=&quot;Times New Roman&quot; style=&quot;font-size: 17px;&quot;&gt;&lt;b&gt;Server Side&lt;/b&gt;&lt;/font&gt;" style="text;html=1;align=center;verticalAlign=middle;resizable=0;points=[];autosize=1;strokeColor=none;fillColor=none;" parent="_lDWNF5c7xaYbBbKeXIW-13" vertex="1">
          <mxGeometry x="640" width="110" height="30" as="geometry" />
        </mxCell>
        <mxCell id="VeHIC26g8emdlC1wqg1T-12" value="&lt;font face=&quot;Times New Roman&quot; style=&quot;font-size: 17px;&quot;&gt;Admin&lt;/font&gt;" style="whiteSpace=wrap;html=1;" parent="_lDWNF5c7xaYbBbKeXIW-13" vertex="1">
          <mxGeometry x="420" y="82" width="330" height="130" as="geometry" />
        </mxCell>
        <mxCell id="VeHIC26g8emdlC1wqg1T-14" value="" style="group" parent="_lDWNF5c7xaYbBbKeXIW-13" vertex="1" connectable="0">
          <mxGeometry width="240" height="480" as="geometry" />
        </mxCell>
        <mxCell id="VeHIC26g8emdlC1wqg1T-1" value="" style="whiteSpace=wrap;html=1;imageAspect=0;fillColor=default;" parent="VeHIC26g8emdlC1wqg1T-14" vertex="1">
          <mxGeometry y="42" width="240" height="400" as="geometry" />
        </mxCell>
        <mxCell id="VeHIC26g8emdlC1wqg1T-2" value="&lt;pre style=&quot;line-height: 60%;&quot;&gt;&lt;font face=&quot;Times New Roman&quot;&gt;&lt;span style=&quot;font-size: 19px;&quot;&gt;Selection of &lt;/span&gt;&lt;/font&gt;&lt;/pre&gt;&lt;pre style=&quot;line-height: 60%;&quot;&gt;&lt;font face=&quot;Times New Roman&quot;&gt;&lt;span style=&quot;font-size: 19px;&quot;&gt;Department&lt;/span&gt;&lt;/font&gt;&lt;/pre&gt;" style="whiteSpace=wrap;html=1;" parent="VeHIC26g8emdlC1wqg1T-14" vertex="1">
          <mxGeometry x="40" y="82" width="160" height="90" as="geometry" />
        </mxCell>
        <mxCell id="VeHIC26g8emdlC1wqg1T-3" value="&lt;font face=&quot;Times New Roman&quot; style=&quot;font-size: 19px;&quot;&gt;Raise Complaint&lt;/font&gt;" style="whiteSpace=wrap;html=1;" parent="VeHIC26g8emdlC1wqg1T-14" vertex="1">
          <mxGeometry x="40" y="192" width="160" height="220" as="geometry" />
        </mxCell>
        <mxCell id="VeHIC26g8emdlC1wqg1T-4" value="&lt;font face=&quot;Times New Roman&quot;&gt;&lt;span style=&quot;font-size: 17px;&quot;&gt;&lt;b&gt;Client Side&lt;/b&gt;&lt;/span&gt;&lt;/font&gt;" style="text;html=1;align=center;verticalAlign=middle;resizable=0;points=[];autosize=1;strokeColor=none;fillColor=none;" parent="VeHIC26g8emdlC1wqg1T-14" vertex="1">
          <mxGeometry x="70" width="100" height="30" as="geometry" />
        </mxCell>
        <mxCell id="VeHIC26g8emdlC1wqg1T-5" value="&lt;font face=&quot;Times New Roman&quot; style=&quot;font-size: 17px;&quot;&gt;&lt;b&gt;Android Device&lt;/b&gt;&lt;/font&gt;" style="text;html=1;align=center;verticalAlign=middle;resizable=0;points=[];autosize=1;strokeColor=none;fillColor=none;" parent="VeHIC26g8emdlC1wqg1T-14" vertex="1">
          <mxGeometry x="50" y="450" width="140" height="30" as="geometry" />
        </mxCell>
        <mxCell id="VeHIC26g8emdlC1wqg1T-9" value="&lt;font face=&quot;Times New Roman&quot; style=&quot;font-size: 16px;&quot;&gt;Database&lt;/font&gt;" style="whiteSpace=wrap;html=1;aspect=fixed;" parent="_lDWNF5c7xaYbBbKeXIW-13" vertex="1">
          <mxGeometry x="440" y="282" width="110" height="110" as="geometry" />
        </mxCell>
        <mxCell id="_lDWNF5c7xaYbBbKeXIW-2" value="" style="shape=flexArrow;endArrow=classic;html=1;rounded=0;exitX=1.001;exitY=0.729;exitDx=0;exitDy=0;exitPerimeter=0;entryX=0.005;entryY=0.464;entryDx=0;entryDy=0;entryPerimeter=0;" edge="1" parent="_lDWNF5c7xaYbBbKeXIW-13" source="VeHIC26g8emdlC1wqg1T-1" target="VeHIC26g8emdlC1wqg1T-9">
          <mxGeometry width="50" height="50" relative="1" as="geometry">
            <mxPoint x="240" y="292" as="sourcePoint" />
            <mxPoint x="290" y="242" as="targetPoint" />
          </mxGeometry>
        </mxCell>
        <mxCell id="_lDWNF5c7xaYbBbKeXIW-3" value="" style="shape=flexArrow;endArrow=classic;html=1;rounded=0;exitX=-0.002;exitY=0.707;exitDx=0;exitDy=0;exitPerimeter=0;entryX=1.004;entryY=0.797;entryDx=0;entryDy=0;entryPerimeter=0;" edge="1" parent="_lDWNF5c7xaYbBbKeXIW-13" source="VeHIC26g8emdlC1wqg1T-9" target="VeHIC26g8emdlC1wqg1T-1">
          <mxGeometry width="50" height="50" relative="1" as="geometry">
            <mxPoint x="250" y="363" as="sourcePoint" />
            <mxPoint x="451" y="362" as="targetPoint" />
          </mxGeometry>
        </mxCell>
        <mxCell id="_lDWNF5c7xaYbBbKeXIW-4" value="Complaint send" style="text;html=1;align=center;verticalAlign=middle;resizable=0;points=[];autosize=1;strokeColor=none;fillColor=none;" vertex="1" parent="_lDWNF5c7xaYbBbKeXIW-13">
          <mxGeometry x="275" y="300" width="110" height="30" as="geometry" />
        </mxCell>
        <mxCell id="_lDWNF5c7xaYbBbKeXIW-5" value="Receive Complaint ID" style="text;html=1;align=center;verticalAlign=middle;resizable=0;points=[];autosize=1;strokeColor=none;fillColor=none;" vertex="1" parent="_lDWNF5c7xaYbBbKeXIW-13">
          <mxGeometry x="260" y="367" width="140" height="30" as="geometry" />
        </mxCell>
        <mxCell id="_lDWNF5c7xaYbBbKeXIW-6" value="" style="shape=flexArrow;endArrow=classic;html=1;rounded=0;exitX=0.229;exitY=0.996;exitDx=0;exitDy=0;exitPerimeter=0;" edge="1" parent="_lDWNF5c7xaYbBbKeXIW-13" source="VeHIC26g8emdlC1wqg1T-12" target="VeHIC26g8emdlC1wqg1T-9">
          <mxGeometry width="50" height="50" relative="1" as="geometry">
            <mxPoint x="490" y="282" as="sourcePoint" />
            <mxPoint x="540" y="232" as="targetPoint" />
          </mxGeometry>
        </mxCell>
        <mxCell id="_lDWNF5c7xaYbBbKeXIW-7" value="" style="shape=flexArrow;endArrow=classic;html=1;rounded=0;entryX=0.336;entryY=1.01;entryDx=0;entryDy=0;entryPerimeter=0;" edge="1" parent="_lDWNF5c7xaYbBbKeXIW-13" target="VeHIC26g8emdlC1wqg1T-12">
          <mxGeometry width="50" height="50" relative="1" as="geometry">
            <mxPoint x="530" y="282" as="sourcePoint" />
            <mxPoint x="530" y="292" as="targetPoint" />
          </mxGeometry>
        </mxCell>
        <mxCell id="_lDWNF5c7xaYbBbKeXIW-9" value="Complaint assigned" style="text;html=1;strokeColor=none;fillColor=none;align=center;verticalAlign=middle;whiteSpace=wrap;rounded=0;movable=0;resizable=0;rotatable=0;deletable=0;editable=0;locked=1;connectable=0;" vertex="1" parent="_lDWNF5c7xaYbBbKeXIW-13">
          <mxGeometry x="540" y="237" width="60" height="30" as="geometry" />
        </mxCell>
        <mxCell id="_lDWNF5c7xaYbBbKeXIW-10" value="update status" style="text;html=1;strokeColor=none;fillColor=none;align=center;verticalAlign=middle;whiteSpace=wrap;rounded=0;" vertex="1" parent="_lDWNF5c7xaYbBbKeXIW-13">
          <mxGeometry x="420" y="225" width="60" height="30" as="geometry" />
        </mxCell>
        <mxCell id="_lDWNF5c7xaYbBbKeXIW-11" value="" style="shape=flexArrow;endArrow=classic;html=1;rounded=0;entryX=1.008;entryY=0.564;entryDx=0;entryDy=0;entryPerimeter=0;exitX=0;exitY=0.539;exitDx=0;exitDy=0;exitPerimeter=0;" edge="1" parent="_lDWNF5c7xaYbBbKeXIW-13" source="VeHIC26g8emdlC1wqg1T-6" target="VeHIC26g8emdlC1wqg1T-1">
          <mxGeometry width="50" height="50" relative="1" as="geometry">
            <mxPoint x="430" y="362" as="sourcePoint" />
            <mxPoint x="480" y="312" as="targetPoint" />
          </mxGeometry>
        </mxCell>
        <mxCell id="_lDWNF5c7xaYbBbKeXIW-12" value="Status update" style="text;html=1;align=center;verticalAlign=middle;resizable=0;points=[];autosize=1;strokeColor=none;fillColor=none;" vertex="1" parent="_lDWNF5c7xaYbBbKeXIW-13">
          <mxGeometry x="280" y="237" width="100" height="30" as="geometry" />
        </mxCell>
      </root>
    </mxGraphModel>
  </diagram>
</mxfile>
